<!-- icon666.com - MILLIONS vector ICONS FREE --><svg id="Layer_2" viewBox="0 0 512 512" xmlns="http://www.w3.org/2000/svg" data-name="Layer 2"><path d="m256.5 458c-111.107 0-201.5-90.393-201.5-201.5s90.393-201.5 201.5-201.5 201.5 90.393 201.5 201.5-90.393 201.5-201.5 201.5zm0-383c-100.08 0-181.5 81.42-181.5 181.5s81.42 181.5 181.5 181.5 181.5-81.42 181.5-181.5-81.421-181.5-181.5-181.5z" fill="#000000" style="fill: rgb(255, 255, 255);"></path><path d="m362.071 348.929-86.971-86.973a20 20 0 0 0 -9.1-23.256v-92.7a10 10 0 0 0 -20 0v92.7a19.981 19.981 0 0 0 14.365 36.811l87.564 87.563a10 10 0 0 0 14.142-14.142z" fill="#000000" style="fill: rgb(255, 255, 255);"></path></svg>