<!-- icon666.com - MILLIONS vector ICONS FREE --><svg enable-background="new 0 0 32 32" viewBox="0 0 32 32" xmlns="http://www.w3.org/2000/svg"><g id="Layer_1"><g><path d="m27.6338 27h-23.2676c-1.8559 0-3.3662-1.5103-3.3662-3.3662v-15.2676c0-1.8559 1.5103-3.3662 3.3662-3.3662h23.2676c1.8559 0 3.3662 1.5103 3.3662 3.3662v15.2676c0 1.8559-1.5103 3.3662-3.3662 3.3662zm-23.2676-20c-.7534 0-1.3662.6128-1.3662 1.3662v15.2676c0 .7534.6128 1.3662 1.3662 1.3662h23.2676c.7534 0 1.3662-.6128 1.3662-1.3662v-15.2676c0-.7534-.6128-1.3662-1.3662-1.3662z" fill="rgb(0,0,0)" style="fill: rgb(250, 250, 250);"></path></g><g><path d="m16 18.3252c-.9019 0-1.8037-.2412-2.6084-.7241l-7.9063-4.7437c-.4704-.2823-.6251-.9017-.3428-1.3721s.9017-.6251 1.3721-.3428l7.9063 4.7437c.9736.585 2.1846.585 3.1582 0l7.9063-4.7437c.4736-.2842 1.0879-.1309 1.3721.3428s.1309 1.0879-.3428 1.3721l-7.9063 4.7437c-.8042.4829-1.7065.7241-2.6084.7241z" fill="rgb(0,0,0)" style="fill: rgb(250, 250, 250);"></path></g></g></svg>