<!-- icon666.com - MILLIONS vector ICONS FREE --><svg id="Layer_1" enable-background="new 0 0 512 512" viewBox="0 0 512 512" xmlns="http://www.w3.org/2000/svg"><g fill="#231f20"><path d="m480.1 89.5-448-1.9h-.1c-17.7 0-32 15.8-32 35.4v265.2c0 19.5 14.3 35.3 31.9 35.4l288.1.6 32 .1 127.9.3h.1c17.7 0 32-15.8 32-35.4v-264.3c0-19.5-14.3-35.3-31.9-35.4zm23.9 299.6c0 15.1-10.8 27.4-24 27.4l-128-.3-32-.1-288-.6c-13.2 0-24-12.3-24-27.4v-265.2c0-15.1 10.8-27.4 24-27.4h.1l448 1.9c13.2.1 23.9 12.3 23.9 27.4z" fill="#231f20" style="fill: rgb(246, 244, 244);"></path><path d="m478.3 156.4-212.6 100.2c-6.3 2.3-13.1 2.3-19.4-.1l-212.6-100.1c-2-.9-4.4-.1-5.3 1.9s-.1 4.4 1.9 5.3l212.8 100.2c.1 0 .2.1.3.1 8.1 3.1 17.1 3.1 25.3.1.1 0 .2-.1.3-.1l212.8-100.3c2-.9 2.9-3.3 2-5.3s-3.4-2.9-5.5-1.9z" fill="#231f20" style="fill: rgb(246, 244, 244);"></path></g></svg>